<svg width="1169" height="272" viewBox="0 0 1169 272" fill="none" xmlns="http://www.w3.org/2000/svg">
<path d="M68.8672 214.8H201.267V268H0.0671901V3.99999H68.8672V214.8ZM396.642 -6.67572e-06C421.176 -6.67572e-06 442.776 3.86666 461.442 11.6C480.376 19.0667 496.776 30.1333 510.642 44.8L477.442 89.2C465.976 77.2 453.576 68.2667 440.242 62.4C427.176 56.2667 412.242 53.2 395.442 53.2C385.576 53.2 377.576 54.2667 371.442 56.4C365.309 58.5333 360.909 61.4667 358.242 65.2C355.576 68.9333 354.242 73.2 354.242 78C354.242 83.6 356.776 88.4 361.842 92.4C367.176 96.1333 375.709 99.3333 387.442 102L431.842 112C458.242 118.133 477.576 127.067 489.842 138.8C502.109 150.533 508.242 166.133 508.242 185.6C508.242 204.267 503.442 220.133 493.842 233.2C484.242 246 471.042 255.733 454.242 262.4C437.442 268.8 418.242 272 396.642 272C379.042 272 362.242 270.133 346.242 266.4C330.242 262.4 315.842 256.8 303.042 249.6C290.242 242.4 279.442 234.133 270.642 224.8L303.842 178.8C310.509 186.533 318.642 193.467 328.242 199.6C338.109 205.467 348.776 210.133 360.242 213.6C371.976 217.067 383.842 218.8 395.842 218.8C405.176 218.8 412.909 217.867 419.042 216C425.442 214.133 430.109 211.333 433.042 207.6C435.976 203.867 437.442 199.467 437.442 194.4C437.442 188.8 435.442 184.133 431.442 180.4C427.442 176.4 419.842 173.067 408.642 170.4L359.842 159.6C344.909 156.133 331.576 151.6 319.842 146C308.376 140.133 299.309 132.4 292.642 122.8C285.976 112.933 282.642 100.667 282.642 86C282.642 69.4667 287.176 54.8 296.242 42C305.309 28.9333 318.376 18.6667 335.442 11.2C352.509 3.73333 372.909 -6.67572e-06 396.642 -6.67572e-06ZM604.005 268V3.99999H732.405C764.938 4.26665 788.938 10.5333 804.405 22.8C819.871 34.8 827.605 52.2667 827.605 75.2C827.605 90.1333 823.205 103.067 814.405 114C805.605 124.667 792.138 131.467 774.005 134.4V134.8C794.271 137.467 809.338 144.533 819.205 156C829.338 167.2 834.405 180.8 834.405 196.8C834.405 219.467 826.405 237.067 810.405 249.6C794.405 261.867 770.405 268 738.405 268H604.005ZM670.405 219.6H726.805C739.338 219.6 748.671 217.067 754.805 212C760.938 206.933 764.005 199.6 764.005 190C764.005 180.667 760.938 173.6 754.805 168.8C748.671 163.733 739.338 161.2 726.805 161.2H670.405V219.6ZM670.405 112H720.405C744.938 112 757.205 102.4 757.205 83.2C757.205 64 744.938 54.4 720.405 54.4H670.405V112ZM1168.63 268H1097.83L1079.43 208.4H989.03L970.23 268H901.03L993.83 3.99999H1076.23L1168.63 268ZM1001.83 161.6H1066.63L1034.23 54.8L1001.83 161.6Z" fill="black"/>
</svg>
