<svg width="127" height="37" viewBox="0 0 127 37" fill="none" xmlns="http://www.w3.org/2000/svg">
<path d="M0.25 36V1.09091H9.72727V28.3636H23.8409V36H0.25ZM46.4901 12C46.3991 10.8636 45.973 9.97727 45.2116 9.34091C44.4616 8.70454 43.3196 8.38636 41.7855 8.38636C40.8082 8.38636 40.0071 8.50568 39.3821 8.74432C38.7685 8.97159 38.3139 9.28409 38.0185 9.68182C37.723 10.0795 37.5696 10.5341 37.5582 11.0455C37.5355 11.4659 37.6094 11.8466 37.7798 12.1875C37.9616 12.517 38.2457 12.8182 38.6321 13.0909C39.0185 13.3523 39.5128 13.5909 40.1151 13.8068C40.7173 14.0227 41.4332 14.2159 42.2628 14.3864L45.1264 15C47.0582 15.4091 48.7116 15.9489 50.0866 16.6193C51.4616 17.2898 52.5866 18.0795 53.4616 18.9886C54.3366 19.8864 54.9787 20.8977 55.3878 22.0227C55.8082 23.1477 56.0241 24.375 56.0355 25.7045C56.0241 28 55.4503 29.9432 54.3139 31.5341C53.1776 33.125 51.5526 34.3352 49.4389 35.1648C47.3366 35.9943 44.8082 36.4091 41.8537 36.4091C38.8196 36.4091 36.1719 35.9602 33.9105 35.0625C31.6605 34.1648 29.9105 32.7841 28.6605 30.9205C27.4219 29.0455 26.7969 26.6477 26.7855 23.7273H35.7855C35.8423 24.7955 36.1094 25.6932 36.5866 26.4205C37.0639 27.1477 37.7344 27.6989 38.598 28.0739C39.473 28.4489 40.5128 28.6364 41.7173 28.6364C42.7287 28.6364 43.5753 28.5114 44.2571 28.2614C44.9389 28.0114 45.456 27.6648 45.8082 27.2216C46.1605 26.7784 46.3423 26.2727 46.3537 25.7045C46.3423 25.1705 46.1662 24.7045 45.8253 24.3068C45.4957 23.8977 44.9503 23.5341 44.1889 23.2159C43.4276 22.8864 42.3991 22.5795 41.1037 22.2955L37.6264 21.5455C34.5355 20.875 32.098 19.7557 30.3139 18.1875C28.5412 16.608 27.6605 14.4545 27.6719 11.7273C27.6605 9.51136 28.2514 7.57386 29.4446 5.91477C30.6491 4.24432 32.3139 2.94318 34.4389 2.01136C36.5753 1.07954 39.0241 0.613635 41.7855 0.613635C44.6037 0.613635 47.0412 1.08523 49.098 2.02841C51.1548 2.97159 52.7401 4.30114 53.8537 6.01705C54.9787 7.72159 55.5469 9.71591 55.5582 12H46.4901ZM59.6406 36V1.09091H74.777C77.4361 1.09091 79.669 1.44886 81.4759 2.16477C83.294 2.88068 84.6634 3.89204 85.5838 5.19886C86.5156 6.50568 86.9815 8.04545 86.9815 9.81818C86.9815 11.1023 86.6974 12.2727 86.1293 13.3295C85.5724 14.3864 84.7884 15.2727 83.777 15.9886C82.7656 16.6932 81.5838 17.1818 80.2315 17.4545V17.7955C81.7315 17.8523 83.0952 18.233 84.3224 18.9375C85.5497 19.6307 86.527 20.5909 87.2543 21.8182C87.9815 23.0341 88.3452 24.4659 88.3452 26.1136C88.3452 28.0227 87.8452 29.7216 86.8452 31.2102C85.8565 32.6989 84.4474 33.8693 82.6179 34.7216C80.7884 35.5739 78.6065 36 76.0724 36H59.6406ZM69.1179 28.4318H73.5497C75.1406 28.4318 76.3338 28.1364 77.1293 27.5455C77.9247 26.9432 78.3224 26.0568 78.3224 24.8864C78.3224 24.0682 78.1349 23.375 77.7599 22.8068C77.3849 22.2386 76.8509 21.8068 76.1577 21.5114C75.4759 21.2159 74.652 21.0682 73.6861 21.0682H69.1179V28.4318ZM69.1179 15.2045H73.0043C73.8338 15.2045 74.5668 15.0739 75.2031 14.8125C75.8395 14.5511 76.3338 14.1761 76.6861 13.6875C77.0497 13.1875 77.2315 12.5795 77.2315 11.8636C77.2315 10.7841 76.8452 9.96023 76.0724 9.39205C75.2997 8.8125 74.3224 8.52273 73.1406 8.52273H69.1179V15.2045ZM100.771 36H90.544L102.067 1.09091H115.021L126.544 36H116.317L108.68 10.7045H108.408L100.771 36ZM98.8622 22.2273H118.089V29.3182H98.8622V22.2273Z" fill="black"/>
</svg>
