<svg width="40" height="33" viewBox="0 0 40 33" fill="none" xmlns="http://www.w3.org/2000/svg">
<path d="M39.9238 3.87375C38.4525 4.51875 36.8775 4.9625 35.2175 5.16375C36.9113 4.1475 38.2062 2.54 38.8237 0.625C37.235 1.55 35.4775 2.22 33.6087 2.59875C32.1188 1.00375 29.9888 0 27.625 0C23.0938 0 19.4212 3.67125 19.4212 8.19625C19.4212 8.8475 19.5 9.4725 19.6362 10.065C12.82 9.74625 6.7775 6.47125 2.73625 1.52375C2.02625 2.72875 1.6225 4.12875 1.6225 5.6525C1.6225 8.50375 3.07375 11.0037 5.2675 12.4738C3.92625 12.435 2.66375 12.0638 1.5575 11.4525V11.5512C1.5575 15.5275 4.3825 18.8425 8.1325 19.5975C7.44875 19.7788 6.71875 19.8837 5.9775 19.8837C5.45125 19.8837 4.94875 19.8325 4.4475 19.74C5.5025 22.995 8.5225 25.365 12.1225 25.4363C9.32375 27.63 5.77625 28.9375 1.95375 28.9375C1.3025 28.9375 0.6525 28.9062 0 28.8275C3.64625 31.1525 7.95 32.5125 12.5987 32.5125C27.6825 32.5125 35.925 20.0187 35.925 9.19875C35.925 8.85375 35.925 8.5025 35.8988 8.15C37.5075 7.00375 38.9 5.55125 40 3.905L39.9238 3.87375Z" fill="black"/>
</svg>
